<?xml version="1.0" encoding="UTF-8"?>
<!DOCTYPE svg PUBLIC "-//W3C//DTD SVG 1.1//EN" "http://www.w3.org/Graphics/SVG/1.1/DTD/svg11.dtd">
<!-- Creator: CorelDRAW 2021 (64-Bit) -->
<svg xmlns="http://www.w3.org/2000/svg" xml:space="preserve" width="215.9mm" height="355.6mm" version="1.1" style="shape-rendering:geometricPrecision; text-rendering:geometricPrecision; image-rendering:optimizeQuality; fill-rule:evenodd; clip-rule:evenodd"
viewBox="0 0 21590 35560"
 xmlns:xlink="http://www.w3.org/1999/xlink"
 xmlns:xodm="http://www.corel.com/coreldraw/odm/2003">
 <defs>
  <style type="text/css">
   <![CDATA[
    .str0 {stroke:#FEFEFE;stroke-width:332.5;stroke-linecap:round;stroke-linejoin:round;stroke-miterlimit:22.9256}
    .fil0 {fill:none}
    .fil1 {fill:#FEFEFE}
    .fil2 {fill:#1C1B17}
   ]]>
  </style>
 </defs>
 <g id="Capa_x0020_1">
  <metadata id="CorelCorpID_0Corel-Layer"/>
  <g id="_2117904481232">
   <g>
    <path class="fil0 str0" d="M10633.13 8983.22c1167.56,675.88 2321.61,1362.22 3480.27,2040.64 1161.06,679.82 2350.56,1342.02 3581.21,1979.76 -1166.18,661.27 -2312.25,1328.65 -3431.23,2018.72 -1112.45,686.04 -2213.19,1385.84 -3326.1,2074.7 -1208.21,-674.25 -2406.98,-1356.02 -3605.02,-2033.32 -1200.17,-678.5 -2415.03,-1347.71 -3654.07,-2001.68 1131.12,-693.73 2317.87,-1353.99 3501.29,-2023.59 1176.97,-665.95 2323.93,-1357.43 3453.65,-2055.23zm437.22 8234.5c1122.9,-672.29 2246.97,-1359.58 3370.86,-2050.84 1123.34,-690.92 2248.67,-1376.12 3373,-2043.56 4.29,1355.5 14.65,2709.78 27.12,4059.21 12.49,1350.62 22.14,2702.49 27.86,4055.55 -1190.02,666.23 -2378.63,1362.78 -3570.75,2053.27 -1187.9,688.05 -2380.01,1355.49 -3567.88,1962.24 27.12,-1322.73 90.34,-2666.11 169.89,-4016.72 79.63,-1351.86 142.78,-2696.42 169.9,-4019.15zm-3823.44 -2007.27c1211.26,702.99 2419.81,1405.97 3630.08,2067.33 -27.59,1354.08 -88.62,2691.23 -164.08,4017.6 -75.53,1327.47 -135.04,2663.5 -161.9,4017.58 -1158.73,-601 -2319.35,-1245.9 -3469.63,-1939.4 -1157.76,-698.01 -2309.46,-1410.81 -3464.55,-2084.22 0,-1339.61 0,-2680.41 0,-4021.22 0,-1339.6 0,-2681.61 0,-4023.63 1209.54,599.81 2422.98,1265.39 3630.08,1965.96z"/>
    <path id="_1" class="fil1" d="M10633.13 8983.22c1167.56,675.88 2321.61,1362.22 3480.27,2040.64 1161.06,679.82 2350.56,1342.02 3581.21,1979.76 -1166.18,661.27 -2312.25,1328.65 -3431.23,2018.72 -1112.45,686.04 -2213.19,1385.84 -3326.1,2074.7 -1208.21,-674.25 -2406.98,-1356.02 -3605.02,-2033.32 -1200.17,-678.5 -2415.03,-1347.71 -3654.07,-2001.68 1131.12,-693.73 2317.87,-1353.99 3501.29,-2023.59 1176.97,-665.95 2323.93,-1357.43 3453.65,-2055.23zm437.22 8234.5c1122.9,-672.29 2246.97,-1359.58 3370.86,-2050.84 1123.34,-690.92 2248.67,-1376.12 3373,-2043.56 4.29,1355.5 14.65,2709.78 27.12,4059.21 12.49,1350.62 22.14,2702.49 27.86,4055.55 -1190.02,666.23 -2378.63,1362.78 -3570.75,2053.27 -1187.9,688.05 -2380.01,1355.49 -3567.88,1962.24 27.12,-1322.73 90.34,-2666.11 169.89,-4016.72 79.63,-1351.86 142.78,-2696.42 169.9,-4019.15zm-3823.44 -2007.27c1211.26,702.99 2419.81,1405.97 3630.08,2067.33 -27.59,1354.08 -88.62,2691.23 -164.08,4017.6 -75.53,1327.47 -135.04,2663.5 -161.9,4017.58 -1158.73,-601 -2319.35,-1245.9 -3469.63,-1939.4 -1157.76,-698.01 -2309.46,-1410.81 -3464.55,-2084.22 0,-1339.61 0,-2680.41 0,-4021.22 0,-1339.6 0,-2681.61 0,-4023.63 1209.54,599.81 2422.98,1265.39 3630.08,1965.96z"/>
   </g>
   <path class="fil2" d="M10690.6 9231.5c-1061.05,655.6 -2134.39,1303.68 -3233.59,1930.28 -1106.99,631.05 -2216,1253.6 -3284.04,1901.89 1140.92,-36.51 2281.86,-58.42 3421.4,-74.65 553.65,-314.81 1110.1,-629.63 1663.74,-944.46 553.65,314.02 1105.9,630.46 1656.75,946.09 678.39,-0.82 1359.59,-3.25 2039.39,-5.69 -444.32,-254.77 -888.46,-511.49 -1327.36,-766.76 -439.92,-255.88 -883.03,-512.79 -1323.15,-768.37 363.02,-215.02 726.05,-429.22 1087.67,-645.05 613.93,363.5 1226.96,730.14 1844.57,1092.11 618.63,362.58 1243.25,720.52 1872.6,1076.71 675.59,-4.87 1356.79,-10.54 2050.59,-18.66 -1115.7,-597.99 -2202.54,-1210.48 -3272.84,-1839.4 -1064.4,-625.47 -2124.88,-1258.46 -3195.73,-1884.04zm-57.47 -248.28c1167.56,675.88 2321.61,1362.22 3480.27,2040.64 1161.06,679.82 2350.56,1342.02 3581.21,1979.76 -1166.18,661.27 -2312.25,1328.65 -3431.23,2018.72 -1112.45,686.04 -2213.19,1385.84 -3326.1,2074.7 -1208.21,-674.25 -2406.98,-1356.02 -3605.02,-2033.32 -1200.17,-678.5 -2415.03,-1347.71 -3654.07,-2001.68 1131.12,-693.73 2317.87,-1353.99 3501.29,-2023.59 1176.97,-665.95 2323.93,-1357.43 3453.65,-2055.23z"/>
   <path class="fil2" d="M3889.81 13615c-0.73,1267.19 -2.91,2531.98 -5.81,3797.95 -2.9,1263.56 -5.09,2529.55 -5.81,3795.53 813.86,475.5 1627.54,970.58 2441.59,1467.53 812.96,496.29 1628.46,978.75 2443.05,1450.63 509.66,-194.3 1028.03,-389.82 1552.22,-596.18 34.13,-788.07 75.19,-1571.35 118.34,-2353.36 43.23,-783.25 84.95,-1566.49 119.07,-2354.56 -513.3,-768.75 -1033.13,-1552 -1558.76,-2344.9 -850.89,-494.81 -1699.41,-996.12 -2551.22,-1485.62 -849.23,-488.03 -1701.78,-948.58 -2552.67,-1377.02zm2074.23 3334.52c-9.44,551.52 -19.63,1101.85 -29.78,1650.97 -10.16,550.3 -20.32,1099.43 -29.03,1648.54 564.84,340.34 1131.13,678.26 1695.97,1016.17 181.51,-100.16 364.46,-197.93 547.42,-298.09 12.33,-341.54 24.67,-684.29 37.03,-1027.03 12.31,-341.53 26.13,-684.28 38.48,-1028.23 -173.52,-312.58 -347.77,-628.77 -522.01,-941.34 -580.09,-342.75 -1158.73,-683.08 -1738.08,-1020.99zm-2347.21 -3705.03c1209.54,599.81 2422.98,1265.39 3630.08,1965.96 1211.26,702.99 2419.81,1405.97 3630.08,2067.33 -27.59,1354.08 -88.62,2691.23 -164.08,4017.6 -75.53,1327.47 -135.04,2663.5 -161.9,4017.58 -1158.73,-601 -2319.35,-1245.9 -3469.63,-1939.4 -1157.76,-698.01 -2309.46,-1410.81 -3464.55,-2084.22 0,-1339.61 0,-2680.41 0,-4021.22 0,-1339.6 0,-2681.61 0,-4023.63z"/>
   <path class="fil2" d="M11297.36 17292.96c-26.41,1254.77 -81.71,2524.17 -151.33,3801.93 -69.57,1276.67 -127.08,2547.16 -154.2,3800.72 569.66,-969.6 1145.74,-1951.32 1723.97,-2942.76 26.42,-649.24 56.4,-1299.67 86.38,-1950.12 544.68,-325.22 1090.07,-650.44 1635.46,-979.31 349.08,-607.96 695.3,-1217.15 1038.68,-1821.48 -435.46,260.91 -871.63,524.25 -1306.38,786.36 -434.73,262.12 -870.2,524.24 -1305.66,785.14 16.43,-432.01 29.99,-864.03 42.12,-1294.82 606.08,-364.05 1210.99,-726.43 1817.5,-1093.37 604.91,-366 1212.14,-729.32 1818.92,-1092.17 325.52,-587.33 649.62,-1171.04 975.13,-1758.37 -1037.95,616.46 -2074.48,1243.85 -3111,1878.51 -1036.53,634.66 -2073.06,1262.05 -3109.59,1879.74zm-227.01 -75.24c1122.9,-672.29 2246.97,-1359.58 3370.86,-2050.84 1123.34,-690.92 2248.67,-1376.12 3373,-2043.56 4.29,1355.5 14.65,2709.78 27.12,4059.21 12.49,1350.62 22.14,2702.49 27.86,4055.55 -1190.02,666.23 -2378.63,1362.78 -3570.75,2053.27 -1187.9,688.05 -2380.01,1355.49 -3567.88,1962.24 27.12,-1322.73 90.34,-2666.11 169.89,-4016.72 79.63,-1351.86 142.78,-2696.42 169.9,-4019.15z"/>
  </g>
 </g>
</svg>
