<?xml version="1.0" encoding="UTF-8"?>
<!DOCTYPE svg PUBLIC "-//W3C//DTD SVG 1.1//EN" "http://www.w3.org/Graphics/SVG/1.1/DTD/svg11.dtd">
<!-- Creator: CorelDRAW 2021 (64-Bit) -->
<svg xmlns="http://www.w3.org/2000/svg" xml:space="preserve" width="215.9mm" height="279.4mm" version="1.1" style="shape-rendering:geometricPrecision; text-rendering:geometricPrecision; image-rendering:optimizeQuality; fill-rule:evenodd; clip-rule:evenodd"
viewBox="0 0 21590 27940"
 xmlns:xlink="http://www.w3.org/1999/xlink"
 xmlns:xodm="http://www.corel.com/coreldraw/odm/2003">
 <defs>
  <style type="text/css">
   <![CDATA[
    .str0 {stroke:#2B2A29;stroke-width:20;stroke-linecap:round;stroke-linejoin:round;stroke-miterlimit:22.9256}
    .str1 {stroke:#FEFEFE;stroke-width:185.43;stroke-linecap:round;stroke-linejoin:round;stroke-miterlimit:22.9256}
    .fil2 {fill:none}
    .fil3 {fill:#FEFEFE}
    .fil1 {fill:#D9DADA}
    .fil0 {fill:#1C1B17}
    .fil4 {fill:url(#id5)}
    .fil5 {fill:url(#id6)}
   ]]>
  </style>
   <clipPath id="id0">
    <rect x="4402.15" y="9084.01" width="7883.48" height="6593.45"/>
   </clipPath>
   <mask id="id1">
  <linearGradient id="id2" gradientUnits="userSpaceOnUse" x1="7312.42" y1="13334" x2="9166.3" y2="10976.91">
   <stop offset="0" style="stop-opacity:1; stop-color:white"/>
   <stop offset="1" style="stop-opacity:0; stop-color:white"/>
  </linearGradient>
    <rect style="fill:url(#id2)" x="6721.21" y="9961.68" width="3826.34" height="3918.28"/>
   </mask>
   <mask id="id3">
  <linearGradient id="id4" gradientUnits="userSpaceOnUse" x1="7659.49" y1="13469.17" x2="10310.14" y2="12066.74">
   <stop offset="0" style="stop-opacity:1; stop-color:white"/>
   <stop offset="1" style="stop-opacity:0; stop-color:white"/>
  </linearGradient>
    <rect style="fill:url(#id4)" x="6900.84" y="10823.43" width="4411.6" height="2909.85"/>
   </mask>
  <linearGradient id="id5" gradientUnits="userSpaceOnUse" x1="7076.34" y1="13491.44" x2="9161.43" y2="10948.51">
   <stop offset="0" style="stop-opacity:1; stop-color:#A2D9F7"/>
   <stop offset="1" style="stop-opacity:1; stop-color:#008DD2"/>
  </linearGradient>
  <linearGradient id="id6" gradientUnits="userSpaceOnUse" xlink:href="#id5" x1="7379.84" y1="13517.3" x2="10317.21" y2="12038.81">
  </linearGradient>
 </defs>
 <g id="Capa_x0020_1">
  <metadata id="CorelCorpID_0Corel-Layer"/>
  <g style="clip-path:url(#id0)">
   <image x="4402.15" y="9084.01" width="7883.47" height="6593.45" xlink:href="FDFdeveloperLOG_Images\FDFdeveloperLOG_ImgID1.png"/>
  </g>
  <g id="_1442706143584">
   <path class="fil0 str0" d="M12887.21 13692.47l4586.19 1190.54c-93.8,46.45 -300.59,255.07 -398.44,343.02 -29.4,26.43 -30.3,32.13 -60.88,61.63 -26.35,25.41 -40.39,32.71 -68.31,54.5 -96.5,75.3 -166.51,147 -256.51,237.29l-1269.65 1110.04 11.62 9.44c-10.34,0.38 -17.89,0.78 -23.59,1.03l-43.5 38.03 -15.22 14.67 -25.82 11.25 -24.33 27.01c-15.81,65.42 -272.41,246.62 -322.59,297.66 -119.27,121.32 -220.51,199.77 -337.67,305.14 0,33.62 9.05,26.33 -22.54,26.33l-17.97 7.79c-36,66.22 -6.4,23.7 -62.63,66.49 -57.69,43.91 -15.87,38.55 -81.82,57.81 -80.11,119.25 -605.81,541.68 -749.43,677.85l-622.97 556.87c-51.87,41.67 -74.37,77.68 -126.7,118.88 -93.11,73.31 -158.73,144 -248.15,228.23 -90.05,84.82 -179.42,7.53 -319.44,-44.1 -466.38,-171.94 -926.89,-346.14 -1386.41,-515.76 -231.29,-85.38 -458.82,-165.31 -694.32,-256.75 -152.79,-59.32 -579.81,-193.93 -680.07,-259.66 -62.75,-18.76 -236.62,-71.36 -259.81,-94.03l-421.46 -144.73 -253.35 -103.63 -1338.99 -496.55 -30.05 -25.67c-96.86,2.38 -352.79,-116.94 -471.22,-159.01 -79.57,-28.25 -151.36,-56.69 -230.89,-85.86l-206.6 -79.82c-34.95,-22.35 -11.06,-3.13 -37.97,-31.5 142.69,-42.12 486.37,-219.17 635.53,-298.13 177.57,-93.99 1837.58,-909.52 1899.01,-916.27 0,-28.28 -5.72,-17.47 28.76,-21.48l85.18 -45.12 1920.41 -948.36c467.41,-211.08 975.07,-481.19 1454.66,-711.48 70.78,-33.98 157.43,-76.64 235.18,-116.81 75.46,-38.99 165.36,-104.42 252.76,-86.78zm-1562.94 -3398.36l447.13 1507.45c43,140.92 126.89,369.7 147.41,508.69 -3.05,-3.68 -6.62,-8.84 -8.43,-11.59 -1.79,-2.74 -6.04,-8.27 -8.16,-11.68l-1117.46 -2565.76c-44.12,-102.35 -134,-272.72 -156.68,-373.79l-15.51 -18.91 6.85 -21.4 -21.52 -28.28 -10.85 -10.2 -11.59 -20.67 -121.57 -265.56 -1955.29 599.81c-57.48,11.23 -99.44,30.08 -157.68,25.33l-19.14 22.7 -4149.57 1267.87 323.9 726.69c143.11,356.63 961.69,2060.38 971.2,2174.64l20.79 13.23c112.69,314.5 874.25,1879.86 907.54,2028.99l2863.24 -1016.96c118.36,-41.54 287.57,-121.48 399.33,-136.3l-3129.74 1634.83c-116.81,58.24 -326.26,185.71 -443.25,228.06 -15.23,-13.71 -9.51,-5.67 -26.74,-29.15l-127.35 -243.62c-280.82,-499.91 -575,-1113.08 -854.21,-1628.65 -38.66,-71.38 -123.9,-194.77 -129.32,-273.16l-41.31 -56.76c-67.75,-93.54 -585.83,-1083.47 -596.84,-1151.92 -54.66,-45.85 -83.46,-120.17 -108.33,-180.47l-160.69 -312.76 -15.72 -19.61 -0.61 -21.27c-38.94,-41.07 -106.87,-169.86 -124.25,-229l-601.96 -1134.68c-46.72,-98.23 -178.66,-278.84 -182.63,-379.86l-21.42 -27.39c-51.44,-32.02 -157.3,-270.68 -183.42,-337.46 129.51,-18.85 1100.27,-313.12 1318.24,-375.09l3928.6 -1125.17 18.16 -10.41 171.44 -45.4 10.99 -9.41 105.42 -18.39 24.66 -16.66 33.63 7.7 16.34 -24.35 106.39 -12.67 23.06 -21.8 287.63 -70.82 23.18 -15.55 35.09 4.59 31.47 -20.25 33.44 -2.44 31.23 -17.36 28.31 5.11 27.99 -24.61 32.89 -0.91 25.48 -15.33 92.51 -10.76c8.33,-26.33 -21.19,-16.21 45.24,-23.56l19.18 1.67 24.5 -22.43 40.91 0.54c67.34,-43.68 1136.97,-349.51 1271.98,-373.41 60.55,96.51 255.68,825.37 307.31,1002.21 99.33,340.21 199.83,666.22 298.58,1003.53z"/>
   <path class="fil1 str0" d="M14759.63 14629.13c103.18,-43.71 53.49,-83.68 195.52,-41.43 59.38,17.67 145.45,33.13 188.28,66.07 -83.76,78.59 -63.47,92.05 -240.75,35.85 -53.57,-16.98 -101.88,-26.35 -143.05,-60.49zm-81.66 74.42l284.02 90.45c-91.03,69.12 -82.37,126.74 -400.53,-8.56 48.08,-27.14 73.02,-48.21 116.51,-81.89zm-323.25 235.92c121.87,-45.51 2.72,-163.01 422.55,-1.07 -38.64,33.67 -72.38,61.22 -119.17,95.85l-303.38 -94.78zm-39.43 75.66c69.99,12.5 186.83,59.75 253.1,78.64 -196.05,195.09 -188.07,111.23 -469.68,40.3 38.93,-48.93 56.56,-44.41 101.9,-76.87 40.75,-29.16 52.87,-53.12 114.68,-42.07zm-985.22 1510.48c32.03,-107.48 254.22,-217.91 375.24,-343.53 68.58,-71.18 117.61,-92.34 193.98,-158.6 59.12,-51.3 124.01,-114.02 187.15,-156.09l131.08 -0.73c165.02,26.37 510.9,186.77 639.51,173.15 -21.83,38.75 -18.92,21.94 31.58,23.02 76.65,59.44 178.66,31.22 244.39,121.71l-56.71 77.03 -321.19 317.28c-57.25,58.01 -101.52,100.61 -158.48,158.02 -198.67,200.25 -186.88,147.01 -707.17,-13.23 -147.84,-45.53 -370.01,-132.61 -507.47,-156.08 -1.87,-2.08 4.24,0.26 -19.5,-19.46 -15.73,-13.07 -15.37,-10.6 -32.41,-22.49zm1206.29 -2066.27c67.1,18.32 155.48,40.52 206.74,70.56 -148.55,78.49 -60.85,100.18 -390.83,-10.87 58.67,-51.13 89.49,-85.51 184.09,-59.69zm-191.55 139.58c66.08,19.21 152.81,39.95 205.2,71.16 -66.84,45.62 -87.96,87.1 -197.35,60.39 -59.87,-14.61 -161.76,-42.12 -209.69,-82.85 111.24,-38.93 66.48,-88.04 201.84,-48.7zm-551.65 300.69c266.66,-216.48 300.19,-201.1 556.67,-93.15 -24.76,20.63 -228.71,174.78 -247.4,180.51 -45.24,13.86 -257.35,-55.59 -309.27,-87.36zm-21.01 76.49c37.46,11.95 215.95,49.98 229.43,87.83l-25.11 8.78 -2.66 14.04 -29.73 25.98 -17.59 20.93c-118.64,35.68 -97.27,-3.42 -237.52,-24.08l-15.89 -19.22 -44.68 -6.7 -10.48 -9.6 -50.34 -0.19c13.1,-39.08 -15.85,-12.74 91.31,-83.5 49.54,-32.71 45.65,-35.82 113.26,-14.27zm-396.88 680.59c97.37,-76.23 127.2,-122.95 235.61,-90.74 61.71,18.33 227.71,73.54 250.45,86.65l-992.1 766.4c-71.8,55.11 -131.28,98.64 -199.18,153.15 -202.71,162.72 -150.95,73 -515.25,-15.02 61.36,-78.14 1043.79,-762.14 1220.47,-900.44zm685.37 -1316.21l252.7 89.61c-58.55,44.35 -49.8,44.21 -108.44,46.46l-249.55 -72.02c43.92,-36.84 43.63,-39.45 105.29,-64.05zm95.74 181.69c-15.83,50.74 8.51,23.55 -19.34,45.28 -34.9,6.72 -19.12,-7.97 -36.89,16.77 -89.49,50.18 -142.96,91.82 -223.74,147.7 -137.18,94.89 -84.38,55.23 -257.07,41.37l-156.93 -52.1c75.32,-69.62 199.69,-133.89 293.97,-195.51 55.76,-36.44 84.29,-77.11 173.45,-60.38 80.58,15.11 103.9,44.15 186.88,43.74l31.51 19.59 8.16 -6.46zm-404.34 -299.12c61.77,19.39 122.5,36.5 189.99,54.5 -24.26,45.47 -89.44,82.71 -158.78,72.15 -59.86,-9.12 -130.66,-39.82 -192.25,-56.25l-21.18 -10.39 -17.99 -16.44 19.8 -13.01 18.2 -2.99c65.35,-40.2 73.77,-55.33 162.21,-27.57zm-219.72 134.99l206.06 64.07c-133.68,62.33 -218.22,206.06 -364.79,111.39l-167.71 -48.7c52.27,-36.02 103.76,-65.81 160.84,-101.48 50.76,-31.7 98.65,-61.48 165.6,-25.28zm446.41 829.47c111.85,25.87 272.34,55.95 353.43,113.71l-7.27 5.48 -31.57 26.04 -16.85 3.3c-28.4,13.84 -26.24,-12.82 -22.05,24.31 -31.31,8.44 -26.28,-2.17 -23.31,25.93 -27.52,7.68 -28.8,6.97 -82.05,7.42 -20.73,-7.74 -18.92,-8.11 -61.62,-21.64l-69.3 -22.3c-60.53,-20.83 -94.61,-32.38 -154.61,-44.48 33.38,-33.38 66.01,-46.29 98.47,-90.33 26.32,-9.14 20.78,0.04 16.73,-27.44zm-359.21 292.4c147.15,-167.35 202.01,-107.47 348.6,-64.67 134.32,39.22 99.99,30.39 127.46,65.14 -82.74,30.51 -87.85,111.5 -218.12,78.44 -113.04,-28.69 -162.75,-47.71 -257.94,-78.91zm20.4 -313.69c59.98,10.98 113.12,22.34 153.4,53.6 -22.21,15.92 -24.53,20.4 -41.87,34.11l-53.38 40.36c-59.87,38.03 -38.77,35.29 -127.61,7.58l-254.09 -87.99 19.6 -15.89 51.99 -13.18 2.07 -15.52 52.91 -20.67c21.42,-23.51 9.84,-8.63 12.06,-32.76l46.38 -6.96 13.32 20.7 105.7 17.01 19.52 19.61zm-548.75 219.53c-0.05,-1.51 1.85,-4.24 0,0zm16.03 -11.46c72.6,-72.1 121.78,-101.5 189.62,-81.9 84.34,24.38 187.99,66.2 265.62,81.59 -25.63,33.23 -62.3,54.91 -106.39,84.56 -129.23,86.92 -244.48,-75.86 -377.55,-48.57 7.84,-14.12 11.29,-21.08 12.67,-24.22 0.06,1.7 2.63,1.85 16.03,-11.46zm299.29 -597.85c48.05,3.31 147.74,45.79 214.44,56.08l59.44 35.74 -31.27 29.33c-41.34,0 -36.72,-10.7 -21.85,26.44l-13.06 -5.23 -46.76 27.7 -0.05 8.69 -70.3 -0.32 -259.3 -90.46c37.63,-36.58 108.17,-92.13 168.71,-87.97zm5.88 208.91c53.48,51.8 34.41,10.42 36.75,46.81l-35.13 5.29 -4.48 19.29c-45.8,17.81 -4.51,-0.87 -47.89,23.97 -12.85,7.36 -28.72,18.87 -46.06,29.13l-30.05 -1.4 -293.57 -86.85c247.82,-185.78 151.11,-56.63 420.43,-36.24zm-448.09 -356.1c187.64,-117.34 176.67,-98.39 411.58,-16.14l36.12 21.13c-78.42,32.17 -111.61,94.16 -208.08,66.26 -82.03,-23.72 -154.83,-55.71 -239.62,-71.25zm268.56 -540.59l70.29 -5.85 229.84 77.52c-28.15,28.4 -65.22,47.18 -106.44,72.76 -98.73,-11.27 -191.68,-70.48 -286.91,-65.73 21.06,-33.58 5.6,-22.26 26.21,-41.82l1.37 2.18 32.78 -14.03 -2.38 -5.83c35.47,-7.01 29.5,4.58 29.5,-24.8l5.74 5.6zm-416.38 1479.82c221.76,-162.3 165.08,-120.18 503.86,-20.99l-105.74 91c-47.9,30.62 -50.79,41.77 -126.12,21.87 -79.03,-20.87 -219.33,-57.92 -272,-91.88zm310.68 -421.79l50.2 3.56 17.39 13.68 25.14 -7.86 6.4 37.03 -22.22 10.44c-62.23,23.91 -74.68,51.91 -109.87,66.39 -50.14,20.63 -55.54,11.25 -118.88,-8 -75.88,-23.06 -179.75,-47.34 -234.2,-80.69 215.94,-161.07 174.27,-78.91 321.93,-71.73l11.26 21.14 49.05 5.03 3.8 11.01zm-651.7 210.57c227.42,-192.21 208.73,-86.42 500.1,-24.26 -2.8,4.14 -6.75,9.34 -9.01,12.01 -2.23,2.62 -6.39,8.44 -9.17,11.53l-93.45 71.18c-95.89,54.77 -262.58,-16.78 -388.47,-70.46zm-524.6 809.68c12.28,-15.96 168.28,-153.26 257.22,-137.84 63.95,11.08 258.27,75.66 305.38,102.63 -163.9,161.5 -249.94,182.52 -562.6,35.21zm-328.72 202.9c238.21,-83.55 84.71,-232.9 599.89,-26.31l-137.55 115.98c-58.5,49.61 -70.85,43.53 -125.02,33.33 -46.9,-8.82 -117.76,-35.2 -167.38,-50.23 -27.18,-8.23 -56.41,-16.23 -79.61,-24.38 -11.54,-4.06 -28.8,-10.1 -39.25,-15.32l-51.08 -33.07zm1487.35 -1628.49c24.31,8.9 16.8,4.87 38.68,15.99 54.84,27.87 7.03,0.92 34.9,23.86 -96.23,33.18 -94.33,98.76 -203.66,72.86 -73.84,-17.49 -138.98,-49.66 -218.39,-66.46l-42.63 -19.16 38.64 -4.54 3.47 -16.61 8.81 -6.05 18.82 -20.24c37.72,6.22 35.38,14.96 17.12,-18.6l35.01 7.55 4.18 -16.72c29.08,-14.62 6.17,-22.37 87.04,-3.44l178.01 51.56zm-405.13 106.78l241.71 71.16c-23.69,19.17 -131.53,94.64 -154.18,98.62 -59.91,10.51 -137.26,-45.25 -217.06,-41.09l-12.51 -25.72 -45.87 -6.48 -15.48 -10.49 -34.82 -1.9 19.63 -25.66 42.24 -5.07 -2.52 -17.06 12.6 -3.52 19.96 -19.15 52.99 -12.01 3.8 -18.03 79.04 11.85 10.47 4.55zm-1115.45 1086.4c19.52,-24.38 190.93,-155.42 259.29,-140.64 72.45,15.65 248.39,74.23 311.89,101.79l-135.45 102.93c-138.65,84.03 -203.63,-19.33 -435.73,-64.08zm312.25 -207.64c49.71,-48.07 170.36,-139.85 240.75,-123.84l281.27 97.24c3.56,2.1 10.94,13.26 13.52,9.38 2.64,-3.99 9.29,6.36 13.7,9.85 -123.45,28.68 -124.01,135.62 -262.28,101.11 -124.9,-31.18 -184.54,-52.53 -286.96,-93.74zm1120.3 -1516.96l84 2.98 225.01 77.45c-386.65,174.72 -222.58,291.08 -655.9,133.03 88.75,-74.76 254.93,-127.35 346.89,-213.46zm-711.8 1246.21c110.28,-71.85 174.61,-20.16 406.82,58.81 -67.8,61.15 -156.11,136.42 -246.69,112.99 -89.02,-23.02 -206.61,-52.33 -274.71,-94.67 37.8,-29.25 72.16,-49.49 114.58,-77.13zm341.53 -344.12c-0.97,0.96 -2.25,2.04 0,0zm-388.96 -69.02l11.33 -3.74 21.13 -13.19 76.45 -38.98 16.12 1.93 307.92 80.03c-15.79,18.25 -11.54,14.4 -31.92,32.29 -6.9,6.05 -10.43,9.19 -12.07,10.68 1.42,-1.4 2.18,-2.55 -9.54,6.49 -109.18,84.15 -109.32,74.7 -183.89,54.02 -44.14,-12.23 -231.48,-54.14 -246.67,-103.16l28.31 -21.5 22.83 -4.87zm-336.65 201.7c95.59,-34.91 144.78,-111.54 252.87,-84.67 94.23,23.42 205.52,49.59 260.56,93.44 -232.18,128.39 -109.04,123.31 -385.81,50.69 -20.44,-5.36 -34.59,-6.11 -67.37,-20.57l-60.25 -38.89zm243.96 -524.85c0.21,-50.82 -9.77,-12.74 41.38,-30.41 11.19,-16.53 61.88,-46.36 85.71,-56 78.92,-31.93 259.23,33.74 329.88,72.55 -30.37,24.51 -124.26,92.08 -168.96,86.66l-288.01 -72.8zm835.09 -716.87c61.82,-3.62 73.24,26.97 145.86,24.78 -3.04,5.01 4.62,62.15 -19.38,32.36 -1.4,-1.73 -5.24,6.28 -8.72,8.28l1.98 0.84c-36.81,7.38 -30.79,-4.71 -30.79,25.31 -72.08,13.59 -111.42,4.96 -193.14,-28.99l-25.77 -14.89c37.39,-10.74 97.93,-45.82 129.96,-47.69zm-344.04 174.96c89.88,-64.87 186.34,-81.78 287.58,-17.61 -34.93,18.29 -98.17,64.16 -137.03,65.03 -46.99,1.05 -121.18,-25.77 -150.55,-47.42zm-226.01 123.21c88.99,-77.49 186.67,-83.21 295.34,-12.99 -109.13,56.51 -180.05,103.86 -295.34,12.99zm-238.92 134.13c149.37,-94.8 132.24,-90.15 312.92,-30.98 -162.94,117.8 -118.8,75.07 -312.92,30.98zm-114.99 2196.72c64.68,7.44 300.01,87.4 348.3,115.8 -27.51,32.7 -24.5,25.12 -58.54,54.01 -70.82,60.15 -127.03,128.64 -216.19,108.17 -78.04,-17.91 -275.37,-84.34 -340.09,-112.56 40.27,-35.75 87.32,-65.4 123.74,-92.89 56.67,-42.79 74.26,-80.4 142.78,-72.53zm458.56 -876.3c76.56,-43.42 157.14,-135.99 236.11,-115.72 93.89,24.09 199.11,59.79 293.6,92.96 -59.09,56.47 -152.3,143.69 -243.08,119.19 -49.43,-13.34 -95.53,-31.18 -148.07,-47.44 -26.42,-8.18 -59.08,-16.38 -81.97,-23.92 -48.13,-15.83 -28.19,-1.6 -56.59,-25.07zm-1274.24 376.03c290.19,-168.65 115.5,-189.49 589.86,-34.04 -42.3,49.49 -187.33,157.52 -267.06,143.94 -64.34,-10.96 -285.73,-85.3 -322.8,-109.9zm1110.79 -259.03c129.59,-93.53 89.49,-44.63 422.33,48.21 -39.05,57.62 -149.77,155.7 -257.99,131.99 -55.33,-12.12 -91.07,-28.19 -144.67,-46.5 -4.61,-1.58 -8.97,-3.21 -13.65,-4.82 -49.75,-17.1 -89.01,-35.78 -129.23,-28.35 39.45,-62.89 60.36,-55.17 123.21,-100.53zm-489.64 -543.98c88.68,15.24 222.8,54.65 283.92,110.31 -68.87,13.82 -28.35,2.81 -74.72,30.17 -59.83,35.3 -70.86,63.02 -114.86,71.46 -58.11,11.14 -311.69,-84.72 -352.25,-111.79 91.51,-36.05 149.62,-118.75 257.91,-100.15zm-301.5 178.52c77.21,13.82 265.05,76.55 288.12,96.44l-53.99 44c-134.37,92.57 -114.84,97.3 -186.76,79.17 -93.13,-23.48 -232.36,-61.34 -308.09,-105.57 76.34,-43.69 159.55,-132.14 260.72,-114.04zm841.45 -941.33c199.83,-174.93 419.85,10.65 429.5,-6.85 2,-3.64 8.19,3.9 12.15,6.12 -174.25,121.99 -166.11,83.4 -441.65,0.73zm-532.53 301.54c223.84,-171.8 220.03,-79.33 489.12,-13.52l-64.57 44.8 -15.65 13.57c-111.04,41.97 -53.39,63.74 -210.15,16.63 -66.35,-19.95 -138.18,-42.7 -198.75,-61.48zm-277.06 155.37c248.04,-173.05 217.29,-76.18 503.25,-11.36 -26.18,20.35 -28.79,21.7 -54.23,40.12 -3.97,2.88 -22.25,16.08 -30.09,21.63 -3.08,2.18 -7.29,5.23 -10.42,7.41l-67.41 39.3c-64.25,17.84 -288.66,-61.49 -341.1,-97.1zm-55.18 67.66c62.85,14.89 263.93,84.06 274.01,90.76 -2.54,2.48 -6.41,5.96 -7.84,7.2 -91.7,79.63 -142.57,114.11 -246.22,95.04 -102.99,-18.94 -157.4,-53.04 -271.64,-81.18 22.06,-21.15 -9.69,2.74 31.09,-25.87 85.63,-60.07 152.26,-102.15 220.6,-85.95zm134.2 -400.23l91.19 -38.36c27.07,-13.95 41.97,-25.2 70.92,-25.35 31.16,-0.15 129.01,40.53 175.5,48.88l-28.01 37.14c-55.37,6.97 -17.63,-6.76 -76.49,27.91 -18.81,11.08 -22.35,23.13 -54.69,27.36 -40.5,5.3 -89.47,-26.26 -160.47,-23.04 -1.79,-4.49 -3.72,-10.6 -4.76,-13.7 -1.05,-3.1 -3.53,-10.66 -4.57,-13.76l-8.62 -27.08zm-119.57 68.87l106.77 21.08 17.5 17.08 84.62 19.27c-30.26,25.77 -70.13,43.29 -114.31,70.79 -75.17,46.8 -52.07,22.35 -143.69,6.49l-21.09 -10.9 -84.17 -22.82 58.78 -34.91 61.13 -29.06 1.55 -10.24 22.14 -8.26 10.77 -18.52zm-8.53 1699.17c47.35,7.44 302.66,91.82 339.01,113.49 -32.46,38.29 -73.72,57.4 -124.61,98.7 -50.18,40.72 -86.58,72.35 -164.14,57.02 -108.23,-21.37 -269.5,-78.59 -328.95,-109.11 40.31,-42.22 215.13,-170.1 278.69,-160.1zm378.2 -1896.32c239.6,-101.76 74.65,-78.23 333.97,-28.76 -108.18,71.91 -196.41,131.56 -333.97,28.76zm-12.78 2377.58c70.62,21.61 136.08,31.71 176.82,75.56 -314.55,158.23 -55.77,253.98 -653.98,47.64 43.65,-35.78 84.26,-69.25 135.47,-105.75 58.08,-41.42 84.4,-87.42 153.71,-76.94 33.13,5 147.13,46.99 187.98,59.49zm-661.69 -1242.52c75.01,11.35 258.47,73.64 302.45,95.73l-104.47 71.83c-44.83,31.92 -72.81,51.04 -115.49,73.51 -23.72,-5.63 -10.08,4.76 -53.02,-18.38 -95.7,-24.98 -223.45,-47.02 -307.24,-107.74 89.29,-40.17 179.28,-129.85 277.77,-114.95zm-269.94 -325.03c275.19,-162.86 176.69,-131.18 543.77,-22 -28.88,51.03 2.54,5.78 -52.42,44.14 -75.11,52.41 -109.43,92.28 -200.09,73.12l-291.26 -95.26zm263.97 -438.98l22.62 -1.8 24.67 -8.53 52.85 -8.28 149.03 55.6c-21.15,16.1 -135.42,91.31 -170.06,97.18 -47.91,8.13 -154.75,-36.09 -207.98,-47.42l21.63 -25.41 28.12 -4.02 4.53 -14.57 12.91 -6.1 16.19 -10.56 25.67 -8.27 19.82 -17.82zm-181.54 1301.77l40.85 -21.54 13.72 -0.62c102.17,-28.75 297.54,73.13 400.93,97.59 -340.42,284.65 -210.12,125.47 -622.53,57.66 3.62,-4.02 9.75,-14.65 11.83,-11.12l70.45 -66.06c36.77,-5.45 29.86,6.01 29.86,-26.13 22.8,0.16 24.98,2.5 23.61,4.02 3.6,-1.41 11.52,-4.11 27.59,-8.78l4.42 -12.72 -0.73 -12.3zm-94.05 -1157.02c5.29,-2.53 25.73,-10.26 29.89,-11.67 4.15,-1.42 25.3,-6.06 31.08,-7.06l12.7 15.1 165.48 54.3c-3.1,2.99 -7.64,6.77 -9.82,8.41 -174.96,131.45 -195.46,94.37 -348.65,60.12l-20.04 -14.72c29.23,-50.75 40.08,-37.08 64.27,-69.57l18.14 -4.42 21.11 -13.99 18.15 -3.29 17.69 -13.21zm-56.54 1790.34c-0.01,-0.02 226.27,-184.87 286.51,-179.6 62.39,5.47 281.91,96.71 369.91,116.9 -386.32,282.93 -204.89,174.63 -646.86,66.08l-9.56 -3.38zm-378.05 -278.73c54.68,-38.69 235.11,-170.37 290.26,-163.64 60.81,7.42 320.6,97.44 358.36,124.19 -121.8,74.08 -206.1,165.37 -292.2,158.46l-356.42 -119.01zm392.27 -691.74c96,19.38 279.09,61.82 312.36,113.46 -33.34,5.79 -27.5,-4.9 -27.5,23.26 -17.9,3.65 -24.11,1.2 -25.91,-0.33 0.44,1.36 0.81,4.34 -0.11,10.1l-30.1 22.33 -125.99 67.32c-71.84,29.53 -340.44,-73.83 -402.52,-105.45 136.14,-86.53 208.17,-149.19 299.77,-130.69zm-363.47 205.3c78.76,9.87 283.61,79.92 336.95,114.83 -43.51,23.99 -100.82,60.64 -140.28,85.38 -217.88,136.64 -124.45,35.76 -494.16,-43.65 3.45,-3.23 8.06,-7.48 10.47,-9.54l31.58 -26.28c66.6,-48.92 177.92,-130.47 255.44,-120.74zm625.18 1139.61c268.73,-188.55 124.77,-50.18 543.72,29.06 -50.84,48.98 -219.91,206.32 -287.23,199.62l-332.11 -98.26c-3.9,-1.31 -8.81,-3.1 -12.6,-4.31 -36.62,-11.75 -22.45,-7.86 -46.74,-12.47l134.96 -113.64zm-434.69 -276.63c107.58,-61.12 451.45,107.86 459.06,113.07l-153.87 103.3c-3,2.1 -7.14,5.16 -10.16,7.28l-365.34 267.71c-14.93,10.76 -36.64,25.15 -52.74,36.5l-184.36 139.18c-145.22,-12.24 -127.65,-16.85 -249.8,-53.38 -5.52,-1.65 -21.04,-6.04 -26.4,-7.66l-190.71 -57.03c70.33,-84.99 463.74,-338.51 567.14,-402.85 48.28,-30.05 78.68,-60.98 132.1,-96.19 19.18,-12.64 54.42,-38.19 75.08,-49.93zm-101.19 -1417.33c102.94,-35.67 176.15,-128.88 277.01,-106.63 78.41,17.31 248.03,64.13 295.71,116.41 -56.73,6.13 -24.44,4.49 -116.95,55.95l-23.27 12.54c-52.14,28.1 -73.39,43.36 -130.95,33.3l-244.77 -74.31c-25.18,-11.91 -17.13,-9.14 -35.05,-20.39l-21.73 -16.87zm262.24 -255.24c-0.59,-3.14 5.95,2.38 0,0zm-393.39 31.21c73.04,-2.09 129.56,-88.72 206.97,-89.03 59.44,6.6 58.54,5.65 116.03,25.03 8.44,2.84 36.4,13.12 50.43,21.74 11.16,6.86 17.05,9.9 19.96,11.05 0.35,1.91 3.3,6.98 13.17,18.86 -67.72,16.39 -100.68,52.27 -167.31,78.06 -65.78,25.47 -91.87,-4.24 -169.89,-21.4l-21.11 -15.22c-69.65,-7.58 -36.55,4.75 -48.25,-29.09zm-62.84 1340.19c58.87,6.33 322.96,94.11 367.71,122.84 -55.38,37.25 -236.75,185.1 -301.15,179.61 -4.55,-0.39 -333.68,-94.94 -380.88,-138.39 91.52,-27.49 221.79,-174.02 314.32,-164.06zm426.6 -924.58c0.23,0.11 -0.17,0.56 0,0zm-687.77 586.14c72.83,6.58 287.1,82.01 347.22,114.75 -64.68,39.54 -235.67,169.22 -304.29,160.97 -83.01,-9.99 -289.92,-82.95 -357.95,-118.26 52.16,-42.94 239.64,-164.26 315.02,-157.46zm137.32 -585.24c297.96,-219.43 284.11,-61.63 564.45,-22.31 -11.47,15.99 -13.69,20.38 -14,21.41 -0.46,-0.22 -3.4,0.9 -18.16,13.82 -2.84,2.49 -33.61,23.65 -34.38,24.12 -277.49,170.69 -206.27,51.4 -529.8,-9.55 13.47,-14.79 11.48,-12.45 31.89,-27.49zm-398.3 234.46c25.14,-28.23 230.5,-159.18 290.07,-150.48 27.79,4.06 136.87,44.38 173.71,55.41l120.71 39.04c53.46,22.77 19.85,8.66 35.92,18.62 -297.06,207.21 -270.73,143.82 -620.41,37.41zm-93.36 60.32c39.63,1.53 309.84,89.57 356.69,113.49 -50.88,48.11 -230.22,158.71 -294.65,153.92 -77.49,-5.75 -312.39,-83.88 -355.8,-122.65 63.59,-35.62 243.09,-146.72 293.76,-144.76zm455.92 -590.07c94.41,-30.33 95.03,-64.24 208.01,-22.15l9.99 6.51 106.31 20.68c-19.13,36.29 -0.72,18.25 -87.06,65.16 -182.79,99.32 -104.2,77.62 -360.46,10.17l14.99 -22.77 44.18 -3.58 1.22 -8.34 32.48 -9.96 -1.21 -11.02 18.23 -9.39 13.32 -15.31zm-221.58 126.24l15.69 5.96 14.15 6.93 192.93 65.49c-164.16,88.8 -240.04,184.11 -436.69,61.61l14.99 -30.72 45.27 -25.27 5.75 -12.78 94.57 -40.83 13.3 -11.9 20.75 -5.14 19.29 -13.35zm-450.23 256.35c54.19,-39.87 72.9,-66.53 141.99,-51.76l7.92 3.95 190 54.39c-52.39,29.94 -154.75,98.11 -206.98,121.14 -71.9,31.71 -157.8,-25.21 -247.99,-42.39l-26.04 -5.45 6.01 -16.58 34.59 -6.33 2.07 -9.27 16.65 -9.66 15.06 -12.34 57.91 -15.08 8.81 -10.62zm939.84 1869.74c431.39,-326.08 304.32,-283.95 555.25,-215.6 85.56,23.3 160.32,56.68 238.15,76.92 -21.18,24.4 -305.45,252.4 -329.53,261.37 -68,25.33 -369.46,-99.9 -463.87,-122.69zm-687.67 -688.52c103.38,-65.22 117.66,-100.16 261.48,-61.07 112.52,30.59 195.89,69.25 293.59,94.7l-504.74 366.22c-72.67,52.09 -93.4,46.32 -224.93,7.53 -103,-30.38 -220.36,-59.4 -287.64,-105.92 145.25,-100.55 307.02,-203.52 462.24,-301.46zm-87.54 -450.46c67.88,1.92 314.3,87.13 372.93,118.26 -32.68,34.62 -265.27,184.26 -310.22,180.41 -74.98,-6.42 -324.51,-97.44 -380.01,-127.6 51.04,-39.83 260.62,-172.67 317.3,-171.07zm-334.52 -299.82c48.4,1.93 333.13,97.36 364.02,118.85 -61.24,39.45 -247.82,168.48 -301.62,166.43 -65.54,-2.5 -313.52,-91.85 -381.84,-115.43 39.77,-37.71 259.18,-172.24 319.44,-169.85zm17.71 -274.88l16.57 5.56 125.82 51.51c-56.99,19.1 -71.99,35.24 -126.95,66.29 -205.53,116.12 -144.77,73.58 -384.98,10.84 47.27,-48.5 116.6,-69.37 178.38,-108.58 90.58,-57.49 78.84,-57.13 191.16,-25.62zm-607.65 1158.55c25.38,17.14 -60.37,-28.77 0,0zm832.92 -228.37c41.37,14.88 33.2,10.41 57.89,26.81 -138.48,99.1 -278.1,170.25 -416.37,268.29 -99.25,70.37 -135.83,43.38 -263.34,5.6l-197.7 -65.89c-5.11,-2.47 -9.55,-4.61 -13.4,-6.44 -2.35,-1.59 -5.65,-3.72 -10.1,-6.49 -22.41,-13.96 -17.9,-11.32 -32.32,-25 79.02,-24.43 341.04,-194.72 428.62,-251.16 124.86,-80.47 175.83,-43.18 446.72,54.28zm-664.82 -420.69c71.95,-0.6 335.16,92.39 393.51,131.63 -88.67,34.11 -262.97,169.97 -335.16,167.7 -77.92,-2.45 -314.84,-88.51 -391.75,-117.85 35.69,-31.12 294.33,-181.15 333.4,-181.48zm-84.26 -306.31c-77.93,32.05 -190.14,91.36 -220.84,142.17 215.28,174.87 312.17,1.86 503.89,-67.94l-73.49 -40.85c-86.47,-31.84 -149.72,-57.99 -209.56,-33.38zm-655.69 366.57c357.1,-233.08 320.89,-143.17 549.46,-90.56 -38.96,39.6 -194.81,123.37 -255.11,154.16 -70.81,36.16 -234.27,-26.94 -294.35,-63.6zm287.15 188.36c29.24,-3.59 369.92,105.2 414.08,128.47 -42.29,33.07 -289.81,184.75 -332.52,189.92 -93.59,11.32 -329.82,-97.75 -421.92,-119.32 31.39,-27.5 294.39,-193.43 340.36,-199.07zm-567.43 -37.86c154.78,-96.56 250.05,-92.71 420.78,3.46 -97.35,42.61 -177.44,99.35 -272.12,152.14 -98.36,54.83 -219.73,-18.65 -326.15,-46.24l12.01 -38.62 7.15 5.52c34.37,-5.29 28.64,5.69 28.64,-22.59 4.8,-0.91 11.77,-6.91 14.43,-2.6 3.19,5.16 25.31,-4.77 30.58,-6.07 21.19,-5.2 21.69,-5.68 49.49,-13.97l6.05 -10.23 27.85 -9.27 1.29 -11.53z"/>
  </g>
  <g id="_1442706141664">
   <g>
    <path class="fil2 str1" d="M12893.68 5343.56c651.12,376.92 1294.7,759.67 1940.85,1138.01 647.5,379.12 1310.85,748.41 1997.15,1104.06 -650.35,368.78 -1289.48,740.96 -1913.51,1125.79 -620.38,382.59 -1234.23,772.85 -1854.88,1157 -673.78,-376.01 -1342.31,-756.21 -2010.42,-1133.93 -669.3,-378.38 -1346.8,-751.58 -2037.78,-1116.28 630.8,-386.87 1292.62,-755.09 1952.58,-1128.5 656.36,-371.38 1295.99,-757.01 1926.01,-1146.15zm243.83 4592.16c626.21,-374.92 1253.07,-758.2 1879.83,-1143.7 626.46,-385.3 1254.03,-767.42 1881.04,-1139.64 2.39,755.93 8.17,1511.18 15.12,2263.72 6.97,753.21 12.35,1507.1 15.54,2261.67 -663.65,371.54 -1326.5,759.99 -1991.31,1145.06 -662.46,383.71 -1327.28,755.92 -1989.72,1094.29 15.13,-737.65 50.38,-1486.82 94.75,-2240.02 44.4,-753.9 79.62,-1503.73 94.75,-2241.38zm-2132.24 -1119.4c675.49,392.04 1349.47,784.08 2024.4,1152.9 -15.38,755.13 -49.42,1500.82 -91.5,2240.5 -42.12,740.3 -75.31,1485.37 -90.29,2240.5 -646.19,-335.16 -1293.44,-694.8 -1934.92,-1081.55 -645.65,-389.26 -1287.92,-786.77 -1932.09,-1162.31 0,-747.06 0,-1494.79 0,-2242.53 0,-747.06 0,-1495.46 0,-2243.87 674.53,334.5 1351.24,705.67 2024.4,1096.36z"/>
    <path id="_1" class="fil3" d="M12893.68 5343.56c651.12,376.92 1294.7,759.67 1940.85,1138.01 647.5,379.12 1310.85,748.41 1997.15,1104.06 -650.35,368.78 -1289.48,740.96 -1913.51,1125.79 -620.38,382.59 -1234.23,772.85 -1854.88,1157 -673.78,-376.01 -1342.31,-756.21 -2010.42,-1133.93 -669.3,-378.38 -1346.8,-751.58 -2037.78,-1116.28 630.8,-386.87 1292.62,-755.09 1952.58,-1128.5 656.36,-371.38 1295.99,-757.01 1926.01,-1146.15zm243.83 4592.16c626.21,-374.92 1253.07,-758.2 1879.83,-1143.7 626.46,-385.3 1254.03,-767.42 1881.04,-1139.64 2.39,755.93 8.17,1511.18 15.12,2263.72 6.97,753.21 12.35,1507.1 15.54,2261.67 -663.65,371.54 -1326.5,759.99 -1991.31,1145.06 -662.46,383.71 -1327.28,755.92 -1989.72,1094.29 15.13,-737.65 50.38,-1486.82 94.75,-2240.02 44.4,-753.9 79.62,-1503.73 94.75,-2241.38zm-2132.24 -1119.4c675.49,392.04 1349.47,784.08 2024.4,1152.9 -15.38,755.13 -49.42,1500.82 -91.5,2240.5 -42.12,740.3 -75.31,1485.37 -90.29,2240.5 -646.19,-335.16 -1293.44,-694.8 -1934.92,-1081.55 -645.65,-389.26 -1287.92,-786.77 -1932.09,-1162.31 0,-747.06 0,-1494.79 0,-2242.53 0,-747.06 0,-1495.46 0,-2243.87 674.53,334.5 1351.24,705.67 2024.4,1096.36z"/>
   </g>
   <path class="fil0" d="M12925.73 5482.02c-591.72,365.61 -1190.29,727.03 -1803.29,1076.47 -617.34,351.91 -1235.8,699.09 -1831.42,1060.63 636.26,-20.36 1272.53,-32.58 1908.02,-41.63 308.76,-175.56 619.08,-351.13 927.83,-526.7 308.75,175.12 616.73,351.59 923.92,527.61 378.32,-0.46 758.21,-1.82 1137.31,-3.18 -247.78,-142.07 -495.47,-285.24 -740.23,-427.6 -245.33,-142.7 -492.44,-285.97 -737.88,-428.5 202.44,-119.91 404.89,-239.36 606.56,-359.72 342.37,202.71 684.24,407.17 1028.67,609.04 344.99,202.2 693.33,401.81 1044.3,600.45 376.76,-2.71 756.64,-5.88 1143.56,-10.41 -622.2,-333.48 -1228.3,-675.05 -1825.18,-1025.78 -593.59,-348.81 -1184.99,-701.81 -1782.17,-1050.68zm-32.05 -138.46c651.12,376.92 1294.7,759.67 1940.85,1138.01 647.5,379.12 1310.85,748.41 1997.15,1104.06 -650.35,368.78 -1289.48,740.96 -1913.51,1125.79 -620.38,382.59 -1234.23,772.85 -1854.88,1157 -673.78,-376.01 -1342.31,-756.21 -2010.42,-1133.93 -669.3,-378.38 -1346.8,-751.58 -2037.78,-1116.28 630.8,-386.87 1292.62,-755.09 1952.58,-1128.5 656.36,-371.38 1295.99,-757.01 1926.01,-1146.15z"/>
   <path class="fil0" d="M9133.11 7926.58c-0.41,706.68 -1.63,1412.02 -3.24,2118.02 -1.62,704.65 -2.84,1410.66 -3.24,2116.66 453.87,265.18 907.63,541.27 1361.61,818.41 453.36,276.76 908.15,545.82 1362.42,808.98 284.22,-108.36 573.31,-217.4 865.63,-332.48 19.04,-439.49 41.93,-876.3 66,-1312.4 24.11,-436.8 47.37,-873.59 66.4,-1313.08 -286.25,-428.71 -576.15,-865.51 -869.28,-1307.69 -474.52,-275.94 -947.71,-555.51 -1422.74,-828.49 -473.6,-272.16 -949.05,-529 -1423.56,-767.93zm1156.74 1859.58c-5.27,307.56 -10.95,614.47 -16.61,920.7 -5.67,306.89 -11.33,613.12 -16.18,919.35 314.99,189.79 630.79,378.24 945.79,566.69 101.22,-55.86 203.25,-110.38 305.28,-166.24 6.88,-190.47 13.76,-381.61 20.65,-572.75 6.87,-190.46 14.58,-381.6 21.46,-573.42 -96.77,-174.31 -193.94,-350.64 -291.11,-524.95 -323.5,-191.15 -646.19,-380.94 -969.28,-569.38zm-1308.98 -2066.2c674.53,334.5 1351.24,705.67 2024.4,1096.36 675.49,392.04 1349.47,784.08 2024.4,1152.9 -15.38,755.13 -49.42,1500.82 -91.5,2240.5 -42.12,740.3 -75.31,1485.37 -90.29,2240.5 -646.19,-335.16 -1293.44,-694.8 -1934.92,-1081.55 -645.65,-389.26 -1287.92,-786.77 -1932.09,-1162.31 0,-747.06 0,-1494.79 0,-2242.53 0,-747.06 0,-1495.46 0,-2243.87z"/>
   <path class="fil0" d="M13264.1 9977.68c-14.73,699.75 -45.56,1407.67 -84.39,2120.24 -38.8,711.97 -70.87,1420.48 -85.99,2119.56 317.68,-540.72 638.95,-1088.2 961.41,-1641.1 14.73,-362.06 31.45,-724.79 48.17,-1087.53 303.75,-181.37 607.9,-362.73 912.05,-546.14 194.67,-339.04 387.75,-678.77 579.24,-1015.78 -242.84,145.49 -486.08,292.35 -728.53,438.53 -242.43,146.17 -485.28,292.35 -728.13,437.85 9.16,-240.92 16.73,-481.85 23.49,-722.09 338,-203.02 675.34,-405.11 1013.57,-609.75 337.35,-204.1 675.98,-406.71 1014.37,-609.07 181.53,-327.54 362.27,-653.05 543.8,-980.6 -578.84,343.79 -1156.88,693.67 -1734.92,1047.6 -578.05,353.93 -1156.09,703.81 -1734.14,1048.28zm-126.59 -41.96c626.21,-374.92 1253.07,-758.2 1879.83,-1143.7 626.46,-385.3 1254.03,-767.42 1881.04,-1139.64 2.39,755.93 8.17,1511.18 15.12,2263.72 6.97,753.21 12.35,1507.1 15.54,2261.67 -663.65,371.54 -1326.5,759.99 -1991.31,1145.06 -662.46,383.71 -1327.28,755.92 -1989.72,1094.29 15.13,-737.65 50.38,-1486.82 94.75,-2240.02 44.4,-753.9 79.62,-1503.73 94.75,-2241.38z"/>
  </g>
  <path class="fil4" style="mask:url(#id1)" d="M8390.99 9971.68c675.18,783.08 1492.65,1207.68 2146.56,1648.79 -1205.53,569.07 -2486.29,1261.44 -3806.34,2249.49 671.23,-1237.37 1813.42,-2610.51 1659.78,-3898.28z"/>
  <path class="fil5" style="mask:url(#id3)" d="M10009.25 10833.43c299.49,989.65 874.43,1709.34 1293.19,2377.79 -1332.73,11.76 -2784.24,131.75 -4391.6,512.06 1115.45,-858.7 2716.47,-1650.46 3098.41,-2889.85z"/>
 </g>
</svg>
